<?xml version="1.0" standalone="no"?>
<!DOCTYPE svg PUBLIC "-//W3C//DTD SVG 20010904//EN"
 "http://www.w3.org/TR/2001/REC-SVG-20010904/DTD/svg10.dtd">
<svg version="1.0" xmlns="http://www.w3.org/2000/svg"
 width="200.000000pt" height="200.000000pt" viewBox="0 0 200.000000 200.000000"
 preserveAspectRatio="xMidYMid meet">
<metadata>
Created by potrace 1.14, written by Peter Selinger 2001-2017
</metadata>
<g transform="translate(0.000000,200.000000) scale(0.100000,-0.100000)"
fill="#000000" stroke="none">
<path d="M806 1844 c-88 -17 -160 -53 -237 -120 l-61 -53 -33 34 c-30 33 -34
34 -64 24 -53 -19 -116 -121 -146 -240 -9 -35 -24 -75 -33 -89 -40 -59 -65
-147 -50 -174 6 -11 5 -16 -4 -16 -9 0 -10 -2 -1 -8 6 -4 13 -16 15 -27 1 -11
26 -42 53 -69 l50 -48 1 -104 c0 -97 2 -107 35 -171 l34 -68 45 0 c25 0 45 5
46 10 5 59 40 93 50 47 16 -76 40 -101 84 -87 27 9 117 112 125 144 4 14 12
33 20 41 7 8 20 40 29 70 8 30 24 67 33 81 10 15 27 39 37 55 36 53 68 83 97
89 16 4 31 11 34 16 9 14 25 11 25 -6 0 -47 85 -165 119 -165 21 0 37 -26 45
-77 14 -78 97 -119 112 -54 4 14 10 31 14 36 4 6 11 26 15 45 4 19 10 40 13
45 4 6 7 16 8 23 2 8 6 21 10 30 10 23 12 30 25 85 11 43 27 62 30 37 1 -5 2
-13 3 -17 7 -28 19 -112 20 -133 4 -78 -30 -213 -72 -290 -14 -25 -30 -54 -36
-65 -18 -33 -109 -125 -123 -125 -7 0 -13 -4 -13 -9 0 -13 -96 -56 -155 -70
-56 -13 -110 -8 -130 13 -8 7 -21 30 -29 50 -21 50 -40 42 -44 -18 l-3 -47
-52 5 c-74 9 -112 14 -112 16 0 1 -7 3 -15 5 -71 14 -148 39 -163 53 -19 16
-19 16 -12 -18 7 -32 71 -168 85 -180 4 -3 9 -12 13 -22 17 -48 170 -144 262
-164 139 -31 317 -23 485 21 52 14 100 27 106 28 7 2 18 8 26 14 7 6 25 14 41
18 15 4 27 11 27 15 0 5 8 11 18 14 19 6 61 39 105 83 39 38 127 163 127 180
0 7 4 13 10 13 5 0 9 3 8 8 -1 4 5 30 14 57 14 42 26 92 33 140 1 6 3 12 4 15
4 9 11 48 27 160 20 137 9 246 -38 394 -12 39 -23 73 -24 76 -9 34 -28 70 -36
70 -5 0 -7 4 -3 9 3 5 0 15 -7 23 -7 7 -25 29 -40 49 -60 80 -177 179 -212
179 -9 0 -16 3 -16 8 0 17 -213 88 -290 96 -30 3 -73 8 -95 11 -82 12 -202 11
-269 -1z"/>
</g>
</svg>
